<?xml version="1.0" encoding="UTF-8"?>
<svg width="83px" height="35px" viewBox="0 0 83 35" version="1.1" xmlns="http://www.w3.org/2000/svg" xmlns:xlink="http://www.w3.org/1999/xlink">
    <title>Group 26</title>
    <defs>
        <polygon id="path-1" points="0.20540942 0.191981225 9.70218561 0.191981225 9.70218561 22.7575908 0.20540942 22.7575908"></polygon>
    </defs>
    <g id="Symbols" stroke="none" stroke-width="1" fill="none" fill-rule="evenodd">
        <g id="Group-26">
            <polygon id="Fill-1" fill="#010202" points="13.2021187 34.4274791 14.1525832 34.4274791 14.1525832 28.7283643 13.2021187 28.7283643"></polygon>
            <path d="M18.2663841,28.7284692 L18.2663841,29.6794582 L18.6235951,29.6794582 L19.0348336,30.0996138 L19.0348336,30.6299226 L18.5433407,31.0983358 L18.2663841,31.0983358 L18.2663841,32.0488002 L19.0348336,32.0488002 L19.0348336,33.0559149 L18.6314632,33.4755459 L18.2663841,33.4755459 L18.2663841,34.427584 L19.0353581,34.427584 L19.9868716,33.4755459 L19.9868716,29.6794582 L19.0348336,28.7284692 L18.2663841,28.7284692 Z M17.1328556,28.7284692 L16.1808176,29.6794582 L16.1808176,31.1056793 L17.1328556,32.0488002 L17.8703573,32.0488002 L17.8703573,31.0983358 L17.617005,31.0983358 L17.5367506,31.0983358 L17.1328556,30.6781802 L17.1328556,30.0996138 L17.5367506,29.6794582 L17.8703573,29.6794582 L17.8703573,28.7284692 L17.1328556,28.7284692 Z M16.1808176,32.5250815 L16.1808176,33.4755459 L17.1323311,34.427584 L17.8703573,34.427584 L17.8703573,33.4755459 L17.5367506,33.4755459 L17.1328556,33.0490958 L17.1328556,32.5250815 L16.1808176,32.5250815 Z" id="Fill-2" fill="#010202"></path>
            <path d="M24.1178775,28.7284692 L24.1178775,29.6794582 L24.4509597,29.6794582 L24.8627227,30.0996138 L24.8627227,30.6299226 L25.8142362,30.6299226 L25.8142362,29.6794582 L24.8627227,28.7284692 L24.1178775,28.7284692 Z M22.9607447,28.7284692 L22.0092312,29.6794582 L22.0092312,33.4755459 L22.9602202,34.427584 L23.7218506,34.427584 L23.7218506,33.4755459 L23.3646397,33.4755459 L22.9607447,33.0490958 L22.9607447,32.5250815 L23.443845,32.0488002 L23.7218506,32.0488002 L23.7218506,31.0983358 L22.9607447,31.0983358 L22.9607447,30.0996138 L23.3646397,29.6794582 L23.7218506,29.6794582 L23.7218506,28.7284692 L22.9607447,28.7284692 Z M24.1178775,31.0983358 L24.1178775,32.0488002 L24.3712297,32.0488002 L24.4588277,32.0488002 L24.8627227,32.4768239 L24.8627227,33.0559149 L24.4588277,33.4755459 L24.1178775,33.4755459 L24.1178775,34.427584 L24.8632472,34.427584 L25.8142362,33.4755459 L25.8142362,32.0488002 L24.8627227,31.0983358 L24.1178775,31.0983358 Z" id="Fill-3" fill="#010202"></path>
            <path d="M29.898086,28.7284692 L29.898086,29.6794582 L30.2385117,29.6794582 L30.6429312,30.0996138 L30.6429312,30.6781802 L30.2385117,31.0983358 L30.1603554,31.0983358 L30.1514382,31.0983358 L29.898086,31.0983358 L29.898086,32.0488002 L30.2311681,32.0488002 L30.6355876,32.4768239 L30.6355876,33.0559149 L30.2311681,33.4755459 L29.898086,33.4755459 L29.898086,34.427584 L30.6434557,34.427584 L31.5865766,33.4755459 L31.5865766,32.0488002 L31.1186879,31.5814361 L31.5949692,31.1056793 L31.5949692,29.6794582 L30.6429312,28.7284692 L29.898086,28.7284692 Z M28.7404287,28.7284692 L27.7894397,29.6794582 L27.7894397,31.0983358 L28.2578529,31.5740926 L27.7894397,32.0488002 L27.7894397,33.4755459 L28.7399042,34.427584 L29.5025837,34.427584 L29.5025837,33.4755459 L29.1448482,33.4755459 L28.7404287,33.0490958 L28.7404287,32.5250815 L28.7404287,32.4768239 L29.1448482,32.0488002 L29.21671,32.0488002 L29.5025837,32.0488002 L29.5025837,31.0983358 L29.1448482,31.0983358 L28.7404287,30.6697875 L28.7404287,30.6299226 L28.7404287,30.0996138 L29.1537653,29.6794582 L29.5025837,29.6794582 L29.5025837,28.7284692 L28.7404287,28.7284692 Z M28.7404287,30.0996138 L28.7404287,30.6299226 L28.7404287,30.0996138 Z M28.7404287,32.5250815 L28.7404287,33.0490958 L28.7404287,32.5250815 Z M30.1603554,32.0488002 L30.1514382,32.0488002 L29.898086,32.0488002 L30.2311681,32.0488002 L30.1603554,32.0488002 Z M29.2324461,32.0488002 L29.2245781,32.0488002 L29.21671,32.0488002 L29.5025837,32.0488002 L29.2324461,32.0488002 Z M29.1448482,32.0488002 L29.21671,32.0488002 L29.1448482,32.0488002 Z" id="Fill-4" fill="#010202"></path>
            <polygon id="Fill-5" fill="#010202" points="33.6271377 34.4274791 34.5776021 34.4274791 34.5776021 28.7283643 33.6271377 28.7283643"></polygon>
            <path d="M38.6911408,28.7284692 L38.6911408,29.6794582 L39.0478272,29.6794582 L39.4595903,30.0996138 L39.4595903,30.6299226 L38.9680973,31.0983358 L38.6911408,31.0983358 L38.6911408,32.0488002 L39.4595903,32.0488002 L39.4595903,33.0559149 L39.0556953,33.4755459 L38.6911408,33.4755459 L38.6911408,34.427584 L39.4601148,34.427584 L40.4111038,33.4755459 L40.4111038,29.6794582 L39.4595903,28.7284692 L38.6911408,28.7284692 Z M37.5570878,28.7284692 L36.6055743,29.6794582 L36.6055743,31.1056793 L37.5570878,32.0488002 L38.2945894,32.0488002 L38.2945894,31.0983358 L38.0417617,31.0983358 L37.9615072,31.0983358 L37.5570878,30.6781802 L37.5570878,30.0996138 L37.9615072,29.6794582 L38.2945894,29.6794582 L38.2945894,28.7284692 L37.5570878,28.7284692 Z M36.6055743,32.5250815 L36.6055743,33.4755459 L37.5565632,34.427584 L38.2945894,34.427584 L38.2945894,33.4755459 L37.9615072,33.4755459 L37.5570878,33.0490958 L37.5570878,32.5250815 L36.6055743,32.5250815 Z" id="Fill-6" fill="#010202"></path>
            <path d="M42.0176614,29.6793533 L45.8226663,29.6793533 L45.8226663,28.7283643 L42.0176614,28.7283643 L42.0176614,29.6793533 Z M44.6330122,30.0753801 L42.0176614,34.4274791 L42.9691749,34.4274791 L45.5845257,30.0753801 L44.6330122,30.0753801 Z" id="Fill-7" fill="#010202"></path>
            <path d="M49.5410699,28.7284692 L49.5410699,29.6794582 L49.8814956,29.6794582 L50.2853906,30.0996138 L50.2853906,30.6781802 L49.8814956,31.0983358 L49.7933731,31.0983358 L49.5410699,31.0983358 L49.5410699,32.0488002 L50.2853906,32.0488002 L51.2369041,31.1056793 L51.2369041,31.0909923 L51.2369041,29.900289 L51.2369041,29.6794582 L50.2853906,28.7284692 L49.5410699,28.7284692 Z M48.3839372,28.7284692 L47.4313746,29.6794582 L47.4313746,30.6299226 L48.3839372,30.6299226 L48.3839372,30.0996138 L48.7878321,29.6794582 L49.1434694,29.6794582 L49.1434694,28.7284692 L48.3839372,28.7284692 Z M48.8659884,31.0983358 L48.3839372,31.0983358 L47.4313746,32.0488002 L47.4313746,34.427584 L49.1434694,34.427584 L49.1434694,33.4755459 L48.3839372,33.4755459 L48.3839372,32.5250815 L48.8659884,32.0488002 L49.1434694,32.0488002 L49.1434694,31.0983358 L48.8659884,31.0983358 Z M49.5410699,34.427584 L51.2369041,34.427584 L51.2369041,33.4760705 L49.5410699,33.4760705 L49.5410699,34.427584 Z" id="Fill-8" fill="#010202"></path>
            <polygon id="Fill-9" fill="#010202" points="53.2438422 34.4274791 54.1953557 34.4274791 54.1953557 28.7283643 53.2438422 28.7283643"></polygon>
            <path d="M58.307688,28.7284692 L58.307688,29.6794582 L58.6638499,29.6794582 L59.076662,30.0996138 L59.076662,30.6299226 L58.5846445,31.0983358 L58.307688,31.0983358 L58.307688,32.0488002 L59.076662,32.0488002 L59.076662,33.0559149 L58.6711934,33.4755459 L58.307688,33.4755459 L58.307688,34.427584 L59.0771865,34.427584 L60.0276509,33.4755459 L60.0276509,29.6794582 L59.076662,28.7284692 L58.307688,28.7284692 Z M57.1731104,28.7284692 L56.2231705,29.6794582 L56.2231705,31.1056793 L57.1731104,32.0488002 L57.9121857,32.0488002 L57.9121857,31.0983358 L57.6572598,31.0983358 L57.5780544,31.0983358 L57.1731104,30.6781802 L57.1731104,30.0996138 L57.5780544,29.6794582 L57.9121857,29.6794582 L57.9121857,28.7284692 L57.1731104,28.7284692 Z M56.2231705,32.5250815 L56.2231705,33.4755459 L57.1725859,34.427584 L57.9121857,34.427584 L57.9121857,33.4755459 L57.5780544,33.4755459 L57.1731104,33.0490958 L57.1731104,32.5250815 L56.2231705,32.5250815 Z" id="Fill-10" fill="#010202"></path>
            <path d="M64.1459629,28.7284692 L64.1459629,29.6794582 L64.4863887,29.6794582 L64.8918572,30.0996138 L64.8918572,30.6781802 L64.4863887,31.0983358 L64.4077078,31.0983358 L64.3998398,31.0983358 L64.1459629,31.0983358 L64.1459629,32.0488002 L64.4785206,32.0488002 L64.8834646,32.4768239 L64.8834646,33.0559149 L64.4785206,33.4755459 L64.1459629,33.4755459 L64.1459629,34.427584 L64.8923818,34.427584 L65.8344536,33.4755459 L65.8344536,32.0488002 L65.3660403,31.5814361 L65.8428462,31.1056793 L65.8428462,29.6794582 L64.8918572,28.7284692 L64.1459629,28.7284692 Z M62.9877811,28.7284692 L62.0378412,29.6794582 L62.0378412,31.0983358 L62.5046808,31.5740926 L62.0378412,32.0488002 L62.0378412,33.4755459 L62.9872566,34.427584 L63.7499361,34.427584 L63.7499361,33.4755459 L63.3922006,33.4755459 L62.9877811,33.0490958 L62.9877811,32.5250815 L62.9877811,32.4768239 L63.3922006,32.0488002 L63.464587,32.0488002 L63.7499361,32.0488002 L63.7499361,31.0983358 L63.3922006,31.0983358 L62.9877811,30.6697875 L62.9877811,30.6299226 L62.9877811,30.0996138 L63.4011178,29.6794582 L63.7499361,29.6794582 L63.7499361,28.7284692 L62.9877811,28.7284692 Z M62.9877811,30.0996138 L62.9877811,30.6299226 L62.9877811,30.0996138 Z M62.9877811,32.5250815 L62.9877811,33.0490958 L62.9877811,32.5250815 Z M64.4077078,32.0488002 L64.3998398,32.0488002 L64.1459629,32.0488002 L64.4785206,32.0488002 L64.4077078,32.0488002 Z M63.4797986,32.0488002 L63.4729796,32.0488002 L63.464587,32.0488002 L63.7499361,32.0488002 L63.4797986,32.0488002 Z M63.3922006,32.0488002 L63.464587,32.0488002 L63.3922006,32.0488002 Z" id="Fill-11" fill="#010202"></path>
            <polygon id="Fill-12" fill="#010202" points="67.8753294 34.4274791 68.8268429 34.4274791 68.8268429 28.7283643 67.8753294 28.7283643"></polygon>
            <path d="M32.6309859,7.25898847 L32.6042344,7.18135672 L32.6309859,7.25898847 Z" id="Fill-13" fill="#010202"></path>
            <polygon id="Fill-14" fill="#010202" points="0 22.610143 3.78297431 22.610143 3.78297431 1.00438702 0 1.00438702"></polygon>
            <polygon id="Fill-15" fill="#010202" points="13.6165044 9.59790728 5.49087286 9.59790728 5.49087286 12.867358 13.6165044 12.867358 13.6165044 22.610143 17.3989542 22.610143 17.3989542 1.00438702 13.6165044 1.00438702"></polygon>
            <polygon id="Fill-16" fill="#010202" points="28.3886205 14.0170948 32.9662712 1.00433457 29.7204247 1.00433457 21.4290388 22.6100905 25.3321325 22.6100905 27.3599998 16.8910432 34.1894958 16.8910432 33.1844793 14.0170948"></polygon>
            <polygon id="Fill-17" fill="#010202" points="42.0660763 22.6102479 34.2845422 2.40605978 32.6039197 7.18146163 38.0119154 22.6102479"></polygon>
            <polygon id="Fill-18" fill="#010202" points="51.8375535 22.610143 61.1129743 22.610143 61.1129743 19.3427903 51.8375535 19.3427903"></polygon>
            <polygon id="Fill-19" fill="#010202" points="46.3472052 22.610143 50.1286059 22.610143 50.1286059 1.00438702 46.3472052 1.00438702"></polygon>
            <g id="Group-25" transform="translate(61.895586, 0.332453)">
                <path d="M20.9011429,11.4758089 C20.9011429,5.57999201 17.3678491,0.625197875 11.408563,0.193502388 L11.408563,3.29510071 C15.4218099,3.76718569 17.1213158,7.59369672 17.1213158,11.4758089 C17.1213158,15.3563474 15.4218099,19.1839075 11.408563,19.6570416 L11.408563,22.7575908 C17.3678491,22.3243217 20.9011429,17.3721503 20.9011429,11.4758089" id="Fill-20" fill="#010202"></path>
                <g id="Group-24">
                    <mask id="mask-2" fill="white">
                        <use xlink:href="#path-1"></use>
                    </mask>
                    <g id="Clip-23"></g>
                    <path d="M3.98681011,11.4758089 C3.98681011,7.59369672 5.68474242,3.76718569 9.70218561,3.29510071 L9.70218561,0.191928771 C3.73975231,0.625197875 0.20540942,5.57999201 0.20540942,11.4758089 C0.20540942,17.3721503 3.73975231,22.3243217 9.70218561,22.7575908 L9.70218561,19.6570416 C5.68474242,19.1839075 3.98681011,15.3563474 3.98681011,11.4758089" id="Fill-22" fill="#010202" mask="url(#mask-2)"></path>
                </g>
            </g>
        </g>
    </g>
</svg>